Coordinates
version=1
nRows=25
nColumns=33
inDegrees=yes

Units are S.I. units (second, meters, Newtons, ...)
Angles are in degrees.

endheader
time	ground_thorax_rot_x	ground_thorax_rot_y	ground_thorax_rot_z	ground_thorax_tx	ground_thorax_ty	ground_thorax_tz	clav_prot_r	clav_elev_r	scapula_abduction_r	scapula_elevation_r	scapula_upward_rot_r	scapula_winging_r	shoulder_elv_r	plane_of_elev_r	axial_rot_r	elbow_flexion_r	pro_sup_r	wrist_flex_r	wrist_dev_r	clav_prot_l	clav_elev_l	scapula_abduction_l	scapula_elevation_l	scapula_upward_rot_l	scapula_winging_l	shoulder_elv_l	plane_of_elev_l	axial_rot_l	elbow_flexion_l	pro_sup_l	wrist_flex_l	wrist_dev_l	
12.3900	-90.000000	90.000000	-90.000000	-108.322693	848.157136	-39.883865	29.941550	34.415611	45.000000	45.000000	20.019568	2504.625766	470.056516	33.139782	-25.214533	1437.992865	151.610500	15.106071	13.895752	-45.000000	20.115885	36.328507	-16.323168	45.000000	3343.611196	-5287.219527	26.253025	175.590307	1789.764453	38.054003	12.753957	-22.158159	
12.4000	-90.000000	90.000000	-90.000000	-107.550954	847.770466	-40.116119	29.967044	34.422548	45.000000	45.000000	19.976544	2504.491571	470.039804	33.085575	-25.617806	1437.964632	151.439276	15.125399	13.998722	-45.000000	20.142467	36.364708	-16.344248	45.000000	3343.720913	-5287.202068	26.260180	175.882132	1789.837538	38.087967	12.829419	-22.244373	
12.4100	-90.000000	90.000000	-90.000000	-106.754685	847.403435	-40.347939	29.997391	34.423738	45.000000	45.000000	19.932403	2504.359925	470.018081	33.026621	-26.019011	1437.939761	151.257576	15.151646	14.119724	-45.000000	20.171208	36.407446	-16.366183	45.000000	3343.838248	-5287.197064	26.277271	176.178658	1789.915937	38.124291	12.915177	-22.321993	
12.4200	-90.000000	90.000000	-90.000000	-105.907067	847.077169	-40.581430	30.018957	34.433434	45.000000	45.000000	19.863261	2504.228019	470.019228	32.955047	-26.460847	1437.904635	151.054987	15.140684	14.209155	-45.000000	20.156060	36.448031	-16.354067	45.000000	3343.907136	-5287.149571	26.248860	176.517882	1789.972280	38.160510	12.983377	-22.386429	
12.4300	-90.000000	90.000000	-90.000000	-105.002918	846.795127	-40.814663	30.036740	34.446400	45.000000	45.000000	19.775255	2504.092627	470.031221	32.875700	-26.930729	1437.864684	150.829836	15.108323	14.285221	-45.000000	20.113736	36.489410	-16.318972	45.000000	3343.951667	-5287.080790	26.198196	176.888193	1790.014396	38.199077	13.047281	-22.437808	
12.4400	-90.000000	90.000000	-90.000000	-104.033752	846.562839	-41.046640	30.051774	34.461409	45.000000	45.000000	19.669861	2503.956530	470.053201	32.786284	-27.427161	1437.820198	150.579929	15.057347	14.352060	-45.000000	20.046478	36.534351	-16.261672	45.000000	3343.970524	-5286.995821	26.125319	177.286332	1790.047260	38.240780	13.108243	-22.474701	
12.4500	-90.000000	90.000000	-90.000000	-102.997170	846.380024	-41.276229	30.065269	34.477173	45.000000	45.000000	19.548920	2503.813933	470.078730	32.693544	-27.946601	1437.772700	150.307104	14.993675	14.413324	-45.000000	19.963108	36.580687	-16.189740	45.000000	3343.979202	-5286.903376	26.043126	177.703375	1790.073692	38.287043	13.171888	-22.500457	
12.4600	-90.000000	90.000000	-90.000000	-101.894014	846.243049	-41.502892	30.079489	34.491136	45.000000	45.000000	19.416721	2503.669026	470.103845	32.595566	-28.481837	1437.724191	150.015926	14.924833	14.477125	-45.000000	19.873452	36.630137	-16.109534	45.000000	3343.982792	-5286.812409	25.957658	178.125618	1790.101882	38.338892	13.241259	-22.516126	
12.4700	-90.000000	90.000000	-90.000000	-100.725665	846.146948	-41.727110	30.093592	34.504133	45.000000	45.000000	19.271612	2503.516478	470.127375	32.497200	-29.035334	1437.674144	149.712965	14.848537	14.538915	-45.000000	19.780394	36.677858	-16.023441	45.000000	3343.988851	-5286.718788	25.874784	178.543439	1790.128538	38.397507	13.317005	-22.525727	
12.4800	-90.000000	90.000000	-90.000000	-99.494273	846.085688	-41.949726	30.108461	34.515399	45.000000	45.000000	19.115308	2503.364025	470.149549	32.393330	-29.603971	1437.622769	149.405375	14.765905	14.602577	-45.000000	19.688873	36.727768	-15.934019	45.000000	3343.987734	-5286.626817	25.789167	178.942388	1790.163774	38.462778	13.397151	-22.531567	
12.4900	-90.000000	90.000000	-90.000000	-98.202558	846.052263	-42.171432	30.123886	34.524462	45.000000	45.000000	18.947670	2503.204885	470.169077	32.289272	-30.189615	1437.570025	149.101358	14.675352	14.666332	-45.000000	19.601539	36.773871	-15.846590	45.000000	3343.997484	-5286.533540	25.717222	179.296975	1790.207718	38.536194	13.484788	-22.539623	
12.5000	-90.000000	90.000000	-90.000000	-96.853833	846.038941	-42.392316	30.139877	34.531566	45.000000	45.000000	18.771708	2503.045723	470.187848	32.179570	-30.788466	1437.517335	148.808906	14.576945	14.732247	-45.000000	19.525608	36.820795	-15.762715	45.000000	3344.001801	-5286.440437	25.647428	179.584162	1790.272222	38.618481	13.579395	-22.555792	
12.5100	-90.000000	90.000000	-90.000000	-95.451557	846.037487	-42.611715	30.156048	34.536516	45.000000	45.000000	18.589344	2502.881458	470.205668	32.068762	-31.399894	1437.465451	148.535664	14.469511	14.799077	-45.000000	19.459301	36.865707	-15.687979	45.000000	3344.013222	-5286.348013	25.590029	179.789287	1790.357530	38.712099	13.681258	-22.582951	
12.5200	-90.000000	90.000000	-90.000000	-93.999110	846.039468	-42.828186	30.171826	34.539761	45.000000	45.000000	18.402468	2502.717738	470.222897	31.954657	-32.019968	1437.414926	148.288095	14.353817	14.867202	-45.000000	19.404861	36.912907	-15.623302	45.000000	3344.015903	-5286.261146	25.530100	179.917338	1790.469386	38.818026	13.787616	-22.621824	
12.5300	-90.000000	90.000000	-90.000000	-92.499324	846.036546	-43.039676	30.186622	34.540883	45.000000	45.000000	18.210888	2502.549229	470.237095	31.842754	-32.648085	1437.365643	148.072234	14.230516	14.934483	-45.000000	19.356536	36.955819	-15.570805	45.000000	3344.030615	-5286.177824	25.482756	179.978969	1790.598565	38.938034	13.898185	-22.669056	
12.5400	-90.000000	90.000000	-90.000000	-90.954318	846.020780	-43.243695	30.199664	34.541159	45.000000	45.000000	18.016470	2502.378478	470.248954	31.730590	-33.279634	1437.318563	147.893231	14.101218	15.000289	-45.000000	19.317307	36.997612	-15.526024	45.000000	3344.044152	-5286.096627	25.433929	179.998980	1790.741313	39.071882	14.012171	-22.721974	
12.5500	-90.000000	90.000000	-90.000000	-89.365306	845.984876	-43.437549	30.210343	34.541765	45.000000	45.000000	17.820296	2502.201664	470.256940	31.620614	-33.911904	1437.273394	147.754895	13.967353	15.063267	-45.000000	19.281199	37.036764	-15.486194	45.000000	3344.064607	-5286.014588	25.389664	180.000000	1790.887414	39.218844	14.128236	-22.775059	
12.5600	-90.000000	90.000000	-90.000000	-87.732809	845.922400	-43.618501	30.217927	34.545133	45.000000	45.000000	17.623693	2502.020823	470.261307	31.510730	-34.539812	1437.232744	147.659899	13.830764	15.122658	-45.000000	19.250259	37.077458	-15.446209	45.000000	3344.079438	-5285.931094	25.338616	180.000000	1791.036323	39.376340	14.246323	-22.827607	
12.5700	-90.000000	90.000000	-90.000000	-86.056659	845.827900	-43.783965	30.221994	34.552363	45.000000	45.000000	17.427644	2501.832685	470.261156	31.402999	-35.161755	1437.196071	147.609785	13.693283	15.177512	-45.000000	19.221411	37.117821	-15.404768	45.000000	3344.097359	-5285.841899	25.289673	180.000000	1791.185108	39.542193	14.367038	-22.878512	
12.5800	-90.000000	90.000000	-90.000000	-84.336500	845.697008	-43.931595	30.222135	34.564948	45.000000	45.000000	17.234032	2501.637529	470.258020	31.296115	-35.774931	1437.164235	147.605147	13.556802	15.227693	-45.000000	19.197814	37.161348	-15.360458	45.000000	3344.108487	-5285.746851	25.234924	180.000000	1791.338012	39.713539	14.490961	-22.929241	
12.5900	-90.000000	90.000000	-90.000000	-82.571892	845.526429	-44.059398	30.218239	34.582853	45.000000	45.000000	17.043655	2501.434519	470.250346	31.192319	-36.380370	1437.133627	147.645643	13.423907	15.273161	-45.000000	19.177370	37.206496	-15.314043	45.000000	3344.119147	-5285.644022	25.179680	180.000000	1791.491303	39.888840	14.617772	-22.977390	
12.6000	-90.000000	90.000000	-90.000000	-80.762923	845.313918	-44.165743	30.210043	34.607133	45.000000	45.000000	16.855250	2501.226900	470.237688	31.088428	-36.975557	1437.108287	147.732302	13.296624	15.313965	-45.000000	19.162203	37.257197	-15.264095	45.000000	3344.113886	-5285.537416	25.112471	180.000000	1791.648804	40.064479	14.746782	-23.022247	
12.6100	-90.000000	90.000000	-90.000000	-78.910121	845.058141	-44.249406	30.197468	34.638658	45.000000	45.000000	16.669459	2501.018620	470.219059	30.980968	-37.558736	1437.090670	147.869244	13.177343	15.350742	-45.000000	19.152707	37.316072	-15.207473	45.000000	3344.084295	-5285.424942	25.026891	180.000000	1791.806530	40.240454	14.878265	-23.069607	
12.6200	-90.000000	90.000000	-90.000000	-77.014850	844.758532	-44.309527	30.180556	34.676430	45.000000	45.000000	16.485956	2500.810722	470.194310	30.869060	-38.130441	1437.081495	148.061078	13.068508	15.383506	-45.000000	19.149224	37.383577	-15.146392	45.000000	3344.026733	-5285.309757	24.919348	180.000000	1791.968260	40.419024	15.009303	-23.121327	
12.6300	-90.000000	90.000000	-90.000000	-75.078939	844.415074	-44.345610	30.159589	34.718069	45.000000	45.000000	16.306018	2500.601463	470.163787	30.755739	-38.694062	1437.078563	148.311544	12.971499	15.412016	-45.000000	19.152704	37.456475	-15.084786	45.000000	3343.956952	-5285.189630	24.799871	180.000000	1792.130596	40.603866	15.139549	-23.179412	
